<svg width="46" height="45" viewBox="0 0 46 45" fill="none" xmlns="http://www.w3.org/2000/svg">
<path d="M14.151 17.5624C12.2527 20.3792 10.7628 23.4266 10.7628 27.067C10.7384 28.9306 11.0713 30.7809 11.7425 32.5122C12.4137 34.2435 13.41 35.822 14.6745 37.1573C15.939 38.4927 17.4469 39.5589 19.1122 40.295C20.7775 41.0311 22.5674 41.4226 24.3799 41.4473C26.1927 41.4237 27.9831 41.0329 29.6489 40.2972C31.3146 39.5614 32.823 38.4953 34.0877 37.1597C35.3524 35.8241 36.3487 34.2453 37.0195 32.5135C37.6902 30.7817 38.0224 28.9309 37.997 27.067C37.997 22.3559 35.7222 19.1108 33.1429 15.5363L24.5241 3.56089C24.3719 3.34674 21.5283 7.35777 21.3201 7.67898C20.252 9.156 19.184 10.6413 18.116 12.1348C16.7783 13.9302 15.3766 15.6928 14.151 17.5624Z" stroke="#655839" stroke-width="2" stroke-linecap="round" stroke-linejoin="round"/>
</svg>
