<svg width="31" height="31" viewBox="0 0 31 31" fill="none" xmlns="http://www.w3.org/2000/svg">
<path d="M28.1809 15.1706C28.4712 14.465 28.6241 13.7104 28.6314 12.9473C28.6314 11.4058 28.019 9.92735 26.9289 8.83729C25.8389 7.74724 24.3604 7.13485 22.8189 7.13485H22.5137C22.2646 6.21809 21.7229 5.40778 20.971 4.82721C20.219 4.24664 19.298 3.92759 18.3481 3.9186C17.7036 3.91059 17.0658 4.05052 16.4839 4.32763C15.902 4.60474 15.3914 5.01164 14.9914 5.51704C14.4354 5.40189 13.8686 5.34667 13.3009 5.35235C13.0442 5.35235 12.7923 5.35235 12.5453 5.38626C10.6323 5.55659 8.84684 6.41748 7.5223 7.80813L7.4787 7.85657C7.36245 7.98251 7.25105 8.10844 7.14449 8.23922C7.03792 8.37001 7.02824 8.37969 6.97495 8.45235C6.92167 8.52501 6.84902 8.62188 6.78605 8.70907C6.72308 8.79626 6.60683 8.97063 6.52449 9.10626L6.45183 9.22735C5.96118 10.0591 5.63248 10.9761 5.48308 11.9302C5.48308 11.9302 5.48308 11.9641 5.48308 11.9834C5.48308 12.0948 5.44433 12.2014 5.4298 12.3128C4.30525 12.4512 3.27519 13.0114 2.54787 13.8802C1.82054 14.749 1.45021 15.8615 1.51173 16.9929C1.57325 18.1242 2.06204 19.19 2.87928 19.9748C3.69652 20.7596 4.78125 21.2048 5.91417 21.2205H26.2725C26.9725 21.2036 27.6498 20.9682 28.2094 20.5473C28.769 20.1264 29.183 19.541 29.3933 18.8731C29.6037 18.2052 29.5999 17.4882 29.3825 16.8226C29.1651 16.1569 28.7449 15.5759 28.1809 15.1609V15.1706ZM26.2434 20.2614H5.89964C4.99349 20.2338 4.13335 19.8559 3.50012 19.2072C2.86689 18.5584 2.50991 17.6894 2.50426 16.7828C2.49861 15.8763 2.84474 15.0028 3.46984 14.3463C4.09495 13.6897 4.95031 13.3011 5.85605 13.2622H6.29683L6.32589 12.8263C6.45987 11.028 7.28464 9.35129 8.62738 8.14759C9.97012 6.94389 11.7266 6.30658 13.5288 6.3692C15.331 6.43182 17.0391 7.18951 18.295 8.48351C19.551 9.7775 20.2574 11.5074 20.2662 13.3106C20.2644 14.0202 20.1566 14.7254 19.9465 15.4031C19.9156 15.5219 19.9309 15.6479 19.9894 15.7558C20.0478 15.8637 20.145 15.9454 20.2614 15.9844C20.3067 15.9993 20.3541 16.0075 20.4018 16.0086C20.5093 16.0132 20.6152 15.9819 20.7029 15.9196C20.7906 15.8573 20.8551 15.7677 20.8862 15.6647C21.1253 14.8945 21.2478 14.0929 21.2495 13.2864C21.2461 12.8972 21.2153 12.5088 21.1575 12.1239C21.6613 12.1675 22.1533 12.3003 22.6106 12.5163C23.5256 12.9671 24.2259 13.7606 24.5596 14.7245C24.8933 15.6884 24.8335 16.7451 24.3931 17.6652C24.3651 17.7227 24.3489 17.7852 24.3452 17.849C24.3415 17.9128 24.3505 17.9768 24.3717 18.0371C24.3929 18.0975 24.4258 18.153 24.4685 18.2006C24.5113 18.2481 24.563 18.2868 24.6207 18.3142C24.6864 18.343 24.7573 18.3579 24.829 18.3578C24.9203 18.3576 25.0097 18.3315 25.0868 18.2827C25.1639 18.2338 25.2257 18.1642 25.265 18.0817C25.8148 16.9297 25.8877 15.6072 25.4677 14.4018C25.0478 13.1963 24.1689 12.2054 23.0223 11.6444C22.3713 11.334 21.6606 11.1687 20.9395 11.16C20.5952 9.94315 19.9663 8.82571 19.1047 7.90006C18.243 6.97441 17.1734 6.26714 15.9843 5.83672C16.2906 5.52824 16.6552 5.28373 17.0568 5.11742C17.4585 4.95111 17.8892 4.86632 18.3239 4.86797C19.1299 4.87498 19.9071 5.16892 20.516 5.69708C21.1249 6.22523 21.5258 6.95305 21.6467 7.75001L21.729 8.27313L22.2425 8.14719C22.4289 8.10973 22.6192 8.09509 22.8092 8.1036C24.0938 8.1036 25.3258 8.61392 26.2342 9.5223C27.1426 10.4307 27.6529 11.6627 27.6529 12.9473C27.642 13.712 27.4617 14.4647 27.125 15.1513L26.936 15.5678L27.3381 15.7858C27.7959 16.0395 28.1577 16.4367 28.3677 16.9161C28.5778 17.3956 28.6245 17.9308 28.5006 18.4394C28.3768 18.948 28.0893 19.4018 27.6823 19.731C27.2753 20.0602 26.7715 20.2466 26.2482 20.2614H26.2434Z" fill="black" fill-opacity="0.6"/>
<path d="M11.5136 22.475C11.3941 22.4291 11.2613 22.4324 11.1442 22.4841C11.0271 22.5359 10.9353 22.6318 10.8888 22.7511L10.1428 24.6886C10.1202 24.7481 10.1096 24.8114 10.1115 24.875C10.1134 24.9386 10.1278 25.0012 10.1539 25.0592C10.18 25.1172 10.2172 25.1695 10.2635 25.2132C10.3098 25.2568 10.3643 25.2909 10.4238 25.3134C10.479 25.3363 10.5383 25.3479 10.5981 25.3473C10.6963 25.3467 10.7919 25.3162 10.8724 25.26C10.9528 25.2038 11.0143 25.1244 11.0486 25.0325L11.7945 23.095C11.8387 22.9755 11.8339 22.8434 11.7813 22.7273C11.7288 22.6113 11.6326 22.5206 11.5136 22.475Z" fill="black" fill-opacity="0.6"/>
<path d="M20.5181 22.475C20.3986 22.4291 20.2658 22.4324 20.1487 22.4841C20.0317 22.5359 19.9398 22.6318 19.8933 22.7511L19.1473 24.6886C19.1248 24.7481 19.1141 24.8114 19.116 24.875C19.1179 24.9386 19.1323 25.0012 19.1584 25.0592C19.1845 25.1172 19.2217 25.1695 19.268 25.2132C19.3144 25.2568 19.3688 25.2909 19.4283 25.3134C19.482 25.3358 19.5396 25.3473 19.5978 25.3473C19.6968 25.3477 19.7935 25.3177 19.8749 25.2614C19.9563 25.2051 20.0185 25.1252 20.0531 25.0325L20.7991 23.095C20.8432 22.9755 20.8384 22.8434 20.7859 22.7273C20.7333 22.6113 20.6371 22.5206 20.5181 22.475Z" fill="black" fill-opacity="0.6"/>
<path d="M16.3234 22.4702C16.2027 22.4265 16.0695 22.4326 15.9533 22.4871C15.837 22.5416 15.7472 22.6401 15.7034 22.7608L14.3859 26.4323C14.3423 26.5531 14.3484 26.6862 14.4029 26.8025C14.4574 26.9188 14.5558 27.0086 14.6766 27.0523C14.7294 27.0715 14.7851 27.0813 14.8412 27.0814C14.9408 27.0814 15.0379 27.0507 15.1194 26.9935C15.2008 26.9363 15.2627 26.8553 15.2966 26.7617L16.6141 23.0902C16.6577 22.9694 16.6516 22.8363 16.5971 22.72C16.5426 22.6037 16.4442 22.5139 16.3234 22.4702Z" fill="black" fill-opacity="0.6"/>
</svg>
