<svg width="31" height="31" viewBox="0 0 31 31" fill="none" xmlns="http://www.w3.org/2000/svg">
<path d="M19.4864 5.94812C19.6149 5.94812 19.7381 5.89709 19.8289 5.80625C19.9197 5.71541 19.9708 5.59221 19.9708 5.46375V4.495C19.9708 4.36653 19.9197 4.24333 19.8289 4.15249C19.7381 4.06165 19.6149 4.01062 19.4864 4.01062C19.3579 4.01062 19.2347 4.06165 19.1439 4.15249C19.053 4.24333 19.002 4.36653 19.002 4.495V5.46375C19.002 5.59221 19.053 5.71541 19.1439 5.80625C19.2347 5.89709 19.3579 5.94812 19.4864 5.94812Z" fill="black" fill-opacity="0.6"/>
<path d="M23.5697 7.04282C23.6372 7.0774 23.7119 7.09565 23.7877 7.0961C23.8771 7.09583 23.9648 7.0708 24.0408 7.02378C24.1169 6.97675 24.1785 6.90958 24.2188 6.8297C24.2188 6.8297 24.3399 6.59235 24.6692 5.98204C24.7335 5.86964 24.7504 5.73632 24.7164 5.61142C24.6823 5.48651 24.6 5.38026 24.4876 5.31603C24.3752 5.25179 24.2419 5.23485 24.117 5.26891C23.9921 5.30297 23.8858 5.38526 23.8216 5.49767C23.468 6.14189 23.3372 6.37439 23.3372 6.37439C23.3063 6.43311 23.2878 6.49756 23.2828 6.56373C23.2779 6.62991 23.2866 6.69639 23.3084 6.75907C23.3302 6.82175 23.3646 6.87927 23.4096 6.92809C23.4545 6.9769 23.509 7.01595 23.5697 7.04282Z" fill="black" fill-opacity="0.6"/>
<path d="M26.8828 10.1719C26.9582 10.1729 27.0329 10.1564 27.1008 10.1235C27.1008 10.1235 27.3333 10.0072 27.9775 9.63909C28.0899 9.57485 28.1722 9.4686 28.2063 9.3437C28.2403 9.21879 28.2234 9.08548 28.1591 8.97307C28.0949 8.86066 27.9887 8.77838 27.8638 8.74431C27.7388 8.71025 27.6055 8.7272 27.4931 8.79143C26.8828 9.1208 26.6552 9.23705 26.6455 9.2419C26.537 9.28596 26.4481 9.36783 26.3954 9.47236C26.3426 9.57688 26.3295 9.69699 26.3584 9.81044C26.3874 9.92389 26.4565 10.023 26.5529 10.0895C26.6493 10.1559 26.7665 10.1852 26.8828 10.1719Z" fill="black" fill-opacity="0.6"/>
<path d="M27.5464 14.0081C27.5464 14.1366 27.5974 14.2598 27.6883 14.3506C27.7791 14.4415 27.9023 14.4925 28.0308 14.4925H28.9995C29.128 14.4925 29.2512 14.4415 29.342 14.3506C29.4329 14.2598 29.4839 14.1366 29.4839 14.0081C29.4839 13.8797 29.4329 13.7565 29.342 13.6656C29.2512 13.5748 29.128 13.5237 28.9995 13.5237H28.0308C27.9023 13.5237 27.7791 13.5748 27.6883 13.6656C27.5974 13.7565 27.5464 13.8797 27.5464 14.0081Z" fill="black" fill-opacity="0.6"/>
<path d="M11.0534 9.68748C11.6444 10.012 11.8187 10.1234 11.8187 10.1234C11.9076 10.1713 12.0098 10.1884 12.1094 10.1719C12.2133 10.1721 12.3145 10.1389 12.3981 10.0772C12.4817 10.0155 12.5432 9.92857 12.5736 9.82922C12.604 9.72986 12.6017 9.62337 12.5669 9.52546C12.5322 9.42754 12.4669 9.3434 12.3806 9.28545C12.3806 9.28545 12.1723 9.14982 11.5426 8.80107C11.487 8.76927 11.4256 8.74874 11.362 8.74065C11.2984 8.73257 11.2339 8.73709 11.172 8.75396C11.1102 8.77082 11.0523 8.79971 11.0016 8.83896C10.9509 8.87821 10.9084 8.92705 10.8766 8.98271C10.8448 9.03837 10.8243 9.09975 10.8162 9.16334C10.8081 9.22693 10.8127 9.29149 10.8295 9.35334C10.8464 9.41518 10.8753 9.4731 10.9145 9.52378C10.9538 9.57447 11.0026 9.61692 11.0583 9.64873L11.0534 9.68748Z" fill="black" fill-opacity="0.6"/>
<path d="M14.8073 6.82969C14.848 6.91031 14.9103 6.97797 14.9873 7.02504C15.0644 7.07211 15.153 7.09672 15.2433 7.09609C15.3178 7.09749 15.3913 7.0791 15.4564 7.04281C15.5713 6.9856 15.6589 6.8851 15.6997 6.76339C15.7406 6.64169 15.7315 6.50874 15.6744 6.39375C15.6744 6.39375 15.5387 6.1225 15.1367 5.49281C15.068 5.38426 14.959 5.30746 14.8336 5.2793C14.7082 5.25114 14.5768 5.27393 14.4683 5.34266C14.3597 5.41139 14.2829 5.52042 14.2548 5.64578C14.2266 5.77113 14.2494 5.90254 14.3181 6.01109C14.6911 6.60203 14.8073 6.82485 14.8073 6.82969Z" fill="black" fill-opacity="0.6"/>
<path d="M28.1809 20.8911C28.4736 20.181 28.6265 19.4212 28.6314 18.6533C28.6272 17.7407 28.4053 16.8422 27.9841 16.0326C27.5628 15.223 26.9545 14.5256 26.2095 13.9984C26.219 12.519 25.7413 11.0776 24.8502 9.89662C23.959 8.71568 22.7039 7.8609 21.2786 7.46421C19.7411 7.07115 18.115 7.2226 16.6766 7.89281C15.2382 8.56301 14.0762 9.71063 13.3881 11.1406H13.2913C13.0394 11.1406 12.8069 11.1406 12.5356 11.1745C11.1173 11.2965 9.7586 11.8011 8.60445 12.6345C7.45031 13.4679 6.54396 14.5989 5.98204 15.9069C5.98204 15.9601 5.93844 16.0086 5.91907 16.0619C5.86094 16.2072 5.80766 16.3525 5.75438 16.5026C5.7011 16.6528 5.69141 16.7012 5.66235 16.7981C5.63329 16.895 5.59454 17.0451 5.56547 17.1662C5.53641 17.2873 5.50735 17.4133 5.48313 17.5344C5.45891 17.6555 5.43954 17.7911 5.42016 17.917C5.40079 18.043 5.42016 18.0381 5.3911 18.1011C4.30948 18.2213 3.31005 18.7358 2.58365 19.5462C1.85726 20.3565 1.4548 21.4061 1.45313 22.4944C1.44668 23.6797 1.91073 24.8192 2.74344 25.6628C3.57615 26.5064 4.70952 26.9852 5.89485 26.9942H26.2725C26.9735 26.9688 27.6493 26.7265 28.2069 26.3009C28.7645 25.8753 29.1763 25.2872 29.3856 24.6177C29.595 23.9483 29.5915 23.2303 29.3758 22.5629C29.16 21.8954 28.7426 21.3113 28.1809 20.8911ZM14.4392 11.1794C15.0819 10.0603 16.0734 9.1825 17.2622 8.68039C18.451 8.17827 19.7716 8.07945 21.0219 8.39905C22.151 8.71057 23.159 9.35761 23.9123 10.2545C24.6657 11.1515 25.129 12.256 25.2408 13.422L25.1875 13.393C25.0422 13.33 24.8969 13.2767 24.7516 13.2234L24.6498 13.1895C24.4591 13.126 24.265 13.0727 24.0686 13.0297C23.8652 12.9861 23.6617 12.9522 23.4534 12.928C23.25 12.928 23.0417 12.8941 22.8334 12.8941H22.5234C22.2852 11.9665 21.7481 11.1432 20.9952 10.5514C20.2423 9.95955 19.3154 9.63212 18.3578 9.61968C18.1959 9.61955 18.0342 9.62926 17.8734 9.64874C17.8105 9.64874 17.7475 9.67296 17.6894 9.68264L17.3988 9.73108L17.1711 9.79889C17.0936 9.82311 17.0113 9.84249 16.9386 9.87155C16.8659 9.90061 16.7836 9.93452 16.7061 9.96843L16.4978 10.0605C16.4226 10.0961 16.3498 10.1365 16.2799 10.1816C16.212 10.2203 16.1442 10.2542 16.0764 10.2978C16.0086 10.3414 15.9456 10.3898 15.8827 10.4383C15.8197 10.4867 15.747 10.5303 15.6889 10.5787C15.6308 10.6272 15.5727 10.6853 15.5145 10.7337C15.4564 10.7822 15.3886 10.8451 15.3256 10.9081L15.1852 11.068C15.1222 11.1358 15.0592 11.2036 15.0011 11.2762H14.8606L14.4392 11.1794ZM26.2531 26.0255H5.90938C4.98204 26.009 4.09794 25.6304 3.44619 24.9705C2.79445 24.3106 2.4268 23.4218 2.42188 22.4944C2.41542 21.5814 2.77128 20.703 3.41142 20.052C4.05156 19.401 4.92374 19.0303 5.83672 19.0214H6.29688L6.32594 18.5661C6.32594 18.3917 6.35985 18.2222 6.38407 18.0478C6.38407 17.9897 6.38407 17.9316 6.38407 17.8734C6.38407 17.8153 6.43251 17.6409 6.45672 17.5198C6.48094 17.3987 6.49547 17.3164 6.52454 17.2195C6.56494 17.0637 6.61345 16.9101 6.66985 16.7594C6.66985 16.7109 6.69891 16.6576 6.71829 16.6092C7.29544 15.0803 8.39006 13.802 9.8119 12.9965C11.2337 12.1909 12.8929 11.909 14.501 12.1997C16.1091 12.4905 17.5645 13.3356 18.6142 14.588C19.6639 15.8405 20.2416 17.4211 20.2469 19.0553C20.2482 19.7429 20.1403 20.4263 19.9272 21.08C19.9068 21.1407 19.8986 21.2049 19.9032 21.2688C19.9077 21.3327 19.9249 21.3951 19.9538 21.4523C19.9826 21.5095 20.0225 21.5604 20.0712 21.6021C20.1198 21.6438 20.1762 21.6754 20.2372 21.6951C20.2859 21.7102 20.3364 21.7184 20.3874 21.7194C20.493 21.7249 20.5975 21.6957 20.685 21.6362C20.7724 21.5767 20.838 21.4902 20.8717 21.39C21.1178 20.6363 21.2421 19.8482 21.2398 19.0553C21.2307 17.4275 20.7217 15.8419 19.7817 14.5129C18.8417 13.1839 17.5161 12.1758 15.9844 11.625C16.2874 11.3095 16.6505 11.0578 17.0523 10.8848C17.4541 10.7118 17.8865 10.6209 18.3239 10.6175C19.131 10.6288 19.9076 10.9277 20.5141 11.4605C21.1205 11.9932 21.517 12.7248 21.6322 13.5237L21.7242 14.0469L22.2425 13.9209C22.4306 13.8833 22.6225 13.8686 22.8141 13.8773C23.0296 13.8791 23.2449 13.8953 23.4583 13.9258H23.5745C23.997 13.9934 24.4089 14.1155 24.8 14.2891L24.9453 14.3569C25.0761 14.4198 25.2069 14.4925 25.328 14.5651C26.0365 14.9876 26.6237 15.586 27.0328 16.3023C27.4418 17.0186 27.6588 17.8284 27.6627 18.6533C27.6465 19.4091 27.4629 20.1519 27.125 20.8281L26.9216 21.2301L27.3091 21.4578C27.6884 21.67 28.0053 21.9781 28.228 22.3513C28.4507 22.7245 28.5715 23.1496 28.5781 23.5842C28.5837 24.2134 28.3441 24.8201 27.9101 25.2758C27.4762 25.7314 26.8819 26.0003 26.2531 26.0255Z" fill="black" fill-opacity="0.6"/>
</svg>
