<svg width="31" height="31" viewBox="0 0 31 31" fill="none" xmlns="http://www.w3.org/2000/svg">
<path d="M28.1567 15.718C28.4459 15.0155 28.5972 14.264 28.6023 13.5044C28.6023 11.9628 27.99 10.4844 26.8999 9.3943C25.8098 8.30425 24.3314 7.69186 22.7898 7.69186H22.4847C22.2352 6.77758 21.6945 5.96952 20.9446 5.39004C20.1947 4.81057 19.2764 4.49125 18.3287 4.48046C17.6856 4.4721 17.0491 4.61194 16.4687 4.88913C15.8883 5.16632 15.3795 5.57342 14.9817 6.07889C14.4257 5.96422 13.859 5.90901 13.2912 5.91421C13.0394 5.91421 12.7827 5.91421 12.5356 5.94811C10.6294 6.12258 8.85141 6.98318 7.53203 8.36999L7.4739 8.42811C7.3625 8.54921 7.25593 8.67514 7.15422 8.80108L6.97015 9.02389L6.79578 9.27092C6.6989 9.40655 6.61172 9.53733 6.52453 9.6778C6.50176 9.71224 6.48074 9.7478 6.46156 9.78436C5.96019 10.6189 5.6216 11.541 5.46375 12.5017V12.5356C5.46375 12.6519 5.425 12.7584 5.41047 12.8747C4.28076 13.0041 3.24312 13.5601 2.50958 14.4289C1.77605 15.2978 1.40198 16.414 1.46382 17.5494C1.52566 18.6848 2.01875 19.7537 2.84231 20.5378C3.66588 21.3218 4.75776 21.7618 5.89484 21.7678H10.7386C10.8671 21.7678 10.9903 21.7168 11.0811 21.6259C11.1719 21.5351 11.223 21.4119 11.223 21.2834C11.223 21.155 11.1719 21.0318 11.0811 20.9409C10.9903 20.8501 10.8671 20.799 10.7386 20.799H5.89484C4.98996 20.7715 4.13103 20.3941 3.49868 19.7462C2.86634 19.0984 2.50986 18.2306 2.50421 17.3253C2.49857 16.42 2.84419 15.5478 3.46841 14.8921C4.09262 14.2364 4.94678 13.8484 5.85125 13.8095H6.29203L6.32109 13.3736C6.45494 11.579 7.27812 9.90595 8.61815 8.70487C9.95818 7.50379 11.7111 6.86794 13.5095 6.93056C15.3079 6.99318 17.0123 7.7494 18.2656 9.04078C19.5188 10.3322 20.2236 12.0585 20.2323 13.858C20.2305 14.5659 20.1228 15.2696 19.9127 15.9456C19.8892 16.02 19.884 16.0989 19.8976 16.1757C19.9111 16.2526 19.9431 16.325 19.9906 16.3868C20.0382 16.4486 20.1 16.498 20.1707 16.5308C20.2415 16.5637 20.3191 16.5789 20.397 16.5753C20.5045 16.5799 20.6104 16.5486 20.6981 16.4863C20.7858 16.424 20.8503 16.3344 20.8814 16.2314C21.1205 15.4629 21.243 14.6628 21.2447 13.858C21.2411 13.4688 21.2103 13.0803 21.1527 12.6955C21.6567 12.7409 22.1487 12.8754 22.6058 13.0926C23.5162 13.5444 24.2127 14.3357 24.5452 15.2961C24.8778 16.2565 24.8196 17.3091 24.3834 18.227C24.3285 18.3427 24.3217 18.4754 24.3643 18.5961C24.407 18.7168 24.4957 18.8157 24.6111 18.8712C24.676 18.9027 24.7472 18.9192 24.8194 18.9197C24.9107 18.9194 25 18.8934 25.0772 18.8445C25.1543 18.7957 25.2161 18.726 25.2553 18.6436C25.8041 17.4898 25.8749 16.1659 25.4521 14.9602C25.0293 13.7545 24.1473 12.7646 22.9981 12.2062C22.348 11.8981 21.6395 11.7329 20.9202 11.7219C20.5779 10.5081 19.9518 9.39327 19.0936 8.46933C18.2354 7.5454 17.1696 6.83892 15.9844 6.40827C16.2887 6.09986 16.6515 5.8553 17.0516 5.68895C17.4517 5.5226 17.8809 5.4378 18.3142 5.43952C19.1118 5.45109 19.8798 5.74349 20.4831 6.26529C21.0864 6.7871 21.4864 7.5049 21.6128 8.29249L21.6952 8.81561L22.228 8.71874C22.4144 8.68127 22.6047 8.66664 22.7947 8.67514C24.0793 8.67514 25.3114 9.18546 26.2197 10.0938C27.1281 11.0022 27.6384 12.2343 27.6384 13.5189C27.6301 14.276 27.4548 15.0219 27.125 15.7034L26.9361 16.12L27.3381 16.3331C27.811 16.5803 28.1872 16.9791 28.4065 17.4655C28.6258 17.952 28.6755 18.4979 28.5476 19.0159C28.4198 19.534 28.1218 19.9941 27.7014 20.3227C27.281 20.6513 26.7625 20.8292 26.2289 20.8281H15.4709C15.3425 20.8281 15.2193 20.8791 15.1284 20.97C15.0376 21.0608 14.9866 21.184 14.9866 21.3125C14.9866 21.4409 15.0376 21.5642 15.1284 21.655C15.2193 21.7458 15.3425 21.7969 15.4709 21.7969H26.2483C26.9471 21.7787 27.6228 21.5428 28.1811 21.1222C28.7394 20.7015 29.1524 20.1171 29.3626 19.4504C29.5727 18.7837 29.5695 18.068 29.3533 17.4032C29.1371 16.7385 28.7188 16.1578 28.1567 15.7422V15.718Z" fill="#606060"/>
<path d="M15.0157 17.6991C15.0172 17.5664 14.9678 17.4383 14.8777 17.341C14.7876 17.2437 14.6636 17.1846 14.5313 17.1759H11.1407L13.3882 12.1772C13.4142 12.1185 13.4274 12.0548 13.4268 11.9906C13.4263 11.9264 13.412 11.863 13.3849 11.8047C13.3578 11.7465 13.3186 11.6947 13.2699 11.6528C13.2212 11.6109 13.164 11.58 13.1024 11.562C13.0433 11.5313 12.9786 11.513 12.9122 11.5084C12.8458 11.5037 12.7792 11.5129 12.7165 11.5351C12.6537 11.5574 12.5963 11.5924 12.5477 11.6378C12.4991 11.6833 12.4603 11.7383 12.4339 11.7994L9.86675 17.5101C9.81954 17.6393 9.8251 17.7819 9.88221 17.907C9.93932 18.0321 10.0434 18.1296 10.1719 18.1786C10.232 18.2024 10.2962 18.2139 10.3608 18.2125H13.7999L11.3053 24.7031C11.2627 24.822 11.2682 24.9529 11.3207 25.0678C11.3732 25.1828 11.4685 25.2726 11.5863 25.3183C11.713 25.3666 11.8535 25.3638 11.9782 25.3105C12.103 25.2571 12.2021 25.1575 12.2547 25.0325L14.9478 17.9509C14.9908 17.8738 15.0141 17.7873 15.0157 17.6991Z" fill="#606060"/>
</svg>
