<svg width="45" height="45" viewBox="0 0 45 45" fill="none" xmlns="http://www.w3.org/2000/svg">
<path d="M43.5741 28.125C43.152 28.125 42.7772 27.8334 42.6742 27.4125C42.639 27.2709 41.8681 24.375 38.9607 24.375C35.8845 24.375 34.2398 27.5766 34.2231 27.6094C34.0653 27.9244 33.7444 28.1241 33.3946 28.1241C33.3937 28.1241 33.3928 28.1241 33.3919 28.1241C33.0421 28.1222 32.7211 27.9234 32.5644 27.6066C32.5495 27.5766 30.9047 24.375 27.8286 24.375C24.7524 24.375 23.1076 27.5766 23.0909 27.6094C22.9156 27.9572 22.5389 28.1559 22.1595 28.1175C21.7745 28.0734 21.4563 27.7941 21.3626 27.4144C21.3311 27.2972 20.5175 24.375 16.6964 24.375C12.827 24.375 12.0376 27.3844 12.0302 27.4144C11.9263 27.8325 11.5561 28.125 11.1303 28.125C10.7045 28.125 10.3334 27.8325 10.2305 27.4144C10.1989 27.2972 9.38535 24.375 5.56423 24.375C4.27197 24.375 3.29976 24.6984 2.67265 25.335C1.89247 26.1291 1.87763 27.1706 1.87763 27.1809C1.88041 27.6919 1.47873 28.1119 0.973141 28.125C0.472194 28.1288 0.0454611 27.7397 0.0231968 27.2288C-0.246758 21.0422 1.937 15.1725 6.17372 10.6978C10.4151 6.2175 16.1287 3.75 22.2625 3.75C28.3963 3.75 34.1099 6.2175 38.3512 10.6978C42.5879 15.1716 44.7717 21.0431 44.5018 27.2288C44.4813 27.6947 44.1251 28.0753 43.665 28.1203C43.6353 28.1231 43.6047 28.125 43.5741 28.125ZM27.8286 22.5C30.5801 22.5 32.4196 24.2288 33.3946 25.4869C34.3696 24.2288 36.2092 22.5 38.9607 22.5C40.4914 22.5 41.6649 23.055 42.5332 23.8087C42.0276 19.3884 40.1231 15.2794 37.0117 11.9934C33.1219 7.88719 27.8842 5.625 22.2625 5.625C16.6407 5.625 11.4021 7.88719 7.51329 11.9944C4.48719 15.1903 2.604 19.1634 2.03719 23.4459C2.95745 22.8178 4.13931 22.5 5.56423 22.5C8.39551 22.5 10.1581 23.8003 11.1303 25.1231C12.1025 23.8003 13.8651 22.5 16.6964 22.5C19.665 22.5 21.4582 23.9288 22.3979 25.3153C23.4035 24.0778 25.1995 22.5 27.8286 22.5Z" fill="#655839"/>
<path d="M22.2625 5.625C21.7504 5.625 21.3348 5.20594 21.3348 4.6875V0.9375C21.3348 0.419063 21.7504 0 22.2625 0C22.7745 0 23.1901 0.419063 23.1901 0.9375V4.6875C23.1901 5.20594 22.7745 5.625 22.2625 5.625Z" fill="#655839"/>
<path d="M24.5817 44.2969C22.9684 44.2969 21.3348 43.2506 21.3348 41.25V27.1875C21.3348 26.6691 21.7504 26.25 22.2625 26.25C22.7745 26.25 23.1901 26.6691 23.1901 27.1875V41.25C23.1901 42.3891 24.4397 42.4219 24.5817 42.4219C24.7236 42.4219 25.9732 42.3891 25.9732 41.25C25.9732 40.7316 26.3888 40.3125 26.9009 40.3125C27.4129 40.3125 27.8285 40.7316 27.8285 41.25C27.8285 43.2506 26.1949 44.2969 24.5817 44.2969Z" fill="#655839"/>
</svg>
