<svg width="46" height="45" viewBox="0 0 46 45" fill="none" xmlns="http://www.w3.org/2000/svg">
<path d="M21.6533 18.2812C25.5366 18.2812 28.6846 15.1333 28.6846 11.25C28.6846 7.36675 25.5366 4.21875 21.6533 4.21875C17.7701 4.21875 14.6221 7.36675 14.6221 11.25" stroke="#655839" stroke-width="2" stroke-linecap="round"/>
<path d="M7.59082 18.2812H21.6533" stroke="#655839" stroke-width="2" stroke-linecap="round"/>
<path d="M8.99707 29.5312H28.6846" stroke="#655839" stroke-width="2" stroke-linecap="round"/>
<path d="M24.4658 33.75C24.4658 36.08 26.3546 37.9688 28.6846 37.9688C31.0145 37.9688 32.9033 36.08 32.9033 33.75C32.9033 31.42 31.0145 29.5312 28.6846 29.5312" stroke="#655839" stroke-width="2" stroke-linecap="round"/>
<path d="M34.3096 23.9062C38.1928 23.9062 41.3408 20.7583 41.3408 16.875C41.3408 12.9917 38.1928 9.84375 34.3096 9.84375C33.8929 9.84375 33.4847 9.88 33.0879 9.9495" stroke="#655839" stroke-width="2" stroke-linecap="round"/>
<path d="M4.77832 23.9062H34.3096" stroke="#655839" stroke-width="2" stroke-linecap="round"/>
</svg>
