<svg width="31" height="31" viewBox="0 0 31 31" fill="none" xmlns="http://www.w3.org/2000/svg">
<path d="M15.4419 2.46063C15.4152 2.46547 15.3886 2.47273 15.3644 2.48C15.0762 2.54539 14.8727 2.80453 14.88 3.1V6.82C14.8776 7.04281 14.9938 7.25109 15.1876 7.36492C15.3813 7.47633 15.6187 7.47633 15.8124 7.36492C16.0062 7.25109 16.1224 7.04281 16.12 6.82V3.1C16.1273 2.92078 16.0546 2.74883 15.9263 2.62773C15.7955 2.50422 15.6187 2.44367 15.4419 2.46063ZM6.60688 6.10313C6.37438 6.1443 6.1879 6.31383 6.12251 6.53906C6.05711 6.76672 6.12493 7.00891 6.29688 7.16875L8.93188 9.80375C9.08204 9.98781 9.3218 10.0726 9.5543 10.0193C9.78438 9.96602 9.96602 9.78438 10.0193 9.5543C10.0726 9.3218 9.98782 9.08203 9.80376 8.93188L7.16876 6.29688C7.0404 6.15883 6.85391 6.08859 6.66501 6.10313C6.64563 6.10313 6.62626 6.10313 6.60688 6.10313ZM24.1994 6.10313C24.0589 6.1225 23.9281 6.19273 23.8313 6.29688L21.1963 8.93188C21.0122 9.08203 20.9274 9.3218 20.9807 9.5543C21.034 9.78438 21.2156 9.96602 21.4457 10.0193C21.6782 10.0726 21.918 9.98781 22.0681 9.80375L24.7031 7.16875C24.8969 6.98469 24.9526 6.69648 24.8388 6.4543C24.7225 6.20969 24.4658 6.06922 24.1994 6.10313ZM15.4419 9.3C15.4225 9.30484 15.4031 9.31211 15.3838 9.31938C15.345 9.3218 15.3063 9.32906 15.2675 9.33875C15.2602 9.34602 15.2554 9.35086 15.2481 9.35813C11.9592 9.49859 9.3 12.1772 9.3 15.5C9.3 18.9124 12.0876 21.7 15.5 21.7C18.9124 21.7 21.7 18.9124 21.7 15.5C21.7 12.1893 19.0626 9.52039 15.7906 9.35813C15.7688 9.35813 15.7543 9.33875 15.7325 9.33875C15.6695 9.31453 15.6041 9.30242 15.5388 9.3C15.5266 9.3 15.5121 9.3 15.5 9.3C15.4806 9.3 15.4613 9.3 15.4419 9.3ZM15.4613 10.54C15.4734 10.54 15.4879 10.54 15.5 10.54C15.5194 10.54 15.5388 10.54 15.5581 10.54C18.2706 10.5715 20.46 12.7802 20.46 15.5C20.46 18.2416 18.2416 20.46 15.5 20.46C12.7609 20.46 10.54 18.2416 10.54 15.5C10.54 12.773 12.7391 10.5618 15.4613 10.54ZM2.92563 14.88C2.58415 14.9284 2.34438 15.2457 2.39282 15.5872C2.44126 15.9287 2.75852 16.1684 3.10001 16.12H6.82001C7.04282 16.1224 7.2511 16.0062 7.36493 15.8124C7.47633 15.6187 7.47633 15.3813 7.36493 15.1876C7.2511 14.9938 7.04282 14.8776 6.82001 14.88H3.10001C3.08063 14.88 3.06126 14.88 3.04188 14.88C3.02251 14.88 3.00313 14.88 2.98376 14.88C2.96438 14.88 2.94501 14.88 2.92563 14.88ZM24.0056 14.88C23.6641 14.9284 23.4244 15.2457 23.4728 15.5872C23.5213 15.9287 23.8385 16.1684 24.18 16.12H27.9C28.1228 16.1224 28.3311 16.0062 28.4449 15.8124C28.5563 15.6187 28.5563 15.3813 28.4449 15.1876C28.3311 14.9938 28.1228 14.8776 27.9 14.88H24.18C24.1606 14.88 24.1413 14.88 24.1219 14.88C24.1025 14.88 24.0831 14.88 24.0638 14.88C24.0444 14.88 24.025 14.88 24.0056 14.88ZM9.3 21.0025C9.15954 21.0219 9.02876 21.0921 8.93188 21.1963L6.29688 23.8312C6.11282 23.9814 6.02805 24.2212 6.08133 24.4537C6.13461 24.6838 6.31626 24.8654 6.54633 24.9187C6.77883 24.972 7.0186 24.8872 7.16876 24.7031L9.80376 22.0681C9.98782 21.8913 10.0435 21.6177 9.94422 21.3827C9.84735 21.1478 9.61243 20.9977 9.35813 21.0025C9.33876 21.0025 9.31938 21.0025 9.3 21.0025ZM21.5063 21.0025C21.2738 21.0437 21.0873 21.2132 21.0219 21.4384C20.9565 21.6661 21.0243 21.9083 21.1963 22.0681L23.8313 24.7031C23.9814 24.8872 24.2212 24.972 24.4537 24.9187C24.6838 24.8654 24.8654 24.6838 24.9187 24.4537C24.972 24.2212 24.8872 23.9814 24.7031 23.8312L22.0681 21.1963C21.9519 21.0727 21.792 21.0049 21.6225 21.0025C21.6031 21.0025 21.5838 21.0025 21.5644 21.0025C21.545 21.0025 21.5256 21.0025 21.5063 21.0025ZM15.4419 23.5406C15.4152 23.5455 15.3886 23.5527 15.3644 23.56C15.0762 23.6254 14.8727 23.8845 14.88 24.18V27.9C14.8776 28.1228 14.9938 28.3311 15.1876 28.4449C15.3813 28.5563 15.6187 28.5563 15.8124 28.4449C16.0062 28.3311 16.1224 28.1228 16.12 27.9V24.18C16.1273 24.0008 16.0546 23.8288 15.9263 23.7077C15.7955 23.5842 15.6187 23.5237 15.4419 23.5406Z" fill="black" fill-opacity="0.6"/>
</svg>
